<svg id="visual" viewBox="0 0 960 540" width="960" height="540" xmlns="http://www.w3.org/2000/svg" xmlns:xlink="http://www.w3.org/1999/xlink" version="1.1"><rect x="0" y="0" width="960" height="540" fill="#030637"></rect><path d="M0 368L137 388L274 363L411 404L549 316L686 340L823 390L960 323L960 541L823 541L686 541L549 541L411 541L274 541L137 541L0 541Z" fill="#3c0753"></path><path d="M0 412L137 389L274 390L411 371L549 411L686 428L823 391L960 391L960 541L823 541L686 541L549 541L411 541L274 541L137 541L0 541Z" fill="#4a0554"></path><path d="M0 449L137 448L274 411L411 446L549 416L686 396L823 434L960 402L960 541L823 541L686 541L549 541L411 541L274 541L137 541L0 541Z" fill="#580455"></path><path d="M0 464L137 440L274 455L411 450L549 445L686 456L823 477L960 476L960 541L823 541L686 541L549 541L411 541L274 541L137 541L0 541Z" fill="#650355"></path><path d="M0 510L137 516L274 513L411 484L549 476L686 512L823 474L960 487L960 541L823 541L686 541L549 541L411 541L274 541L137 541L0 541Z" fill="#720455"></path></svg>